<svg xmlns="http://www.w3.org/2000/svg" viewBox="0 0 445.93 514.89"><path fill="#ffd83e" d="M83.91 177.15l-33.09-19.11 22.81-12.88 32.84 18.96L153.44 137l69.53-40.15L292.49 137l46.99 27.11 32.82-18.95 22.84 12.88 50.79-29.32-111.5-64.37L222.97 0 111.5 64.35 0 128.72l83.91 48.44v-.01z"/><path fill="#fa7e13" d="M153.44 377.89l-69.53-40.14V177.16L0 128.72v257.45l111.5 64.37 111.47 64.35v-96.85l-69.53-40.15z"/><path fill="#ffa21a" d="M395.14 158.04l-33.08 19.11V337.75l-69.57 40.14-69.52 40.15v96.85l111.46-64.35 111.5-64.37V128.72l-50.79 29.32z"/><path fill="#fab2a2" d="M311.86 180.05l-33.15-19.15-55.74-32.18-55.72 32.18-33.17 19.16 88.89 51.31 88.89-51.32zM211.69 250.93l-100.18-57.84h-.01l100.19 57.84z"/><path fill="#ffa21a" d="M211.69 250.93L111.5 193.09l100.19 57.84zM211.69 250.93L111.5 193.09V321.8l55.75 32.19 55.72 32.18-11.28-6.53V250.93z"/><path fill="#fa7e13" d="M234.24 379.65l-11.27 6.52 55.74-32.18 55.72-32.19V193.09l-100.19 57.85v128.71z"/><path fill="#ffd83e" d="M339.48 164.11l22.58 13.03v.01l33.08-19.11-22.84-12.88-32.82 18.95z"/><path fill="#ffd83e" d="M362.06 177.15l33.08-19.11-33.08 19.11zM334.43 193.09l27.63-15.94v-.01l-22.58-13.03-27.62 15.94 22.57 13.04zM334.43 193.09l27.63-15.94-27.63 15.94z"/><path fill="#ffd83e" d="M222.97 238.9h11.27v12.04l100.19-57.85-22.57-13.04-88.89 51.32v7.53zM234.24 250.94l100.19-57.85-100.19 57.85zM234.24 250.94l100.19-57.85-100.19 57.85zM99.8 167.97l6.67-3.85-32.84-18.96-22.81 12.88 22.81-5.17 26.17 15.1z"/><path fill="#ffd83e" d="M127.41 183.91l6.67-3.85-27.61-15.94-6.67 3.85 27.61 15.94z"/><path fill="#ffd83e" d="M222.97 238.9v-7.53l-88.89-51.31-6.67 3.85 95.28 54.99h.28zM99.8 167.97l-26.17-15.1-22.81 5.17 33.09 19.11v-.01l15.89-9.17z"/><path fill="#ffd83e" d="M127.41 183.91L99.8 167.97l-15.89 9.17v.01l27.6 15.94 15.9-9.18zM211.69 238.9h11l-95.28-54.99-15.9 9.18 100.18 57.84V238.9zM211.69 250.93l11.28 6.51-11.28-6.51zM211.69 250.93l11.28 6.51-11.28-6.51zM211.69 250.93v128.71l11.28 6.53V257.44l-11.28-6.51zM234.24 250.94l-11.27 6.5v128.73l11.27-6.52V250.94z"/><path fill="#ffd83e" d="M222.97 238.9v18.54l11.27-6.5V238.9h-11.27zM234.24 250.94l-11.27 6.5 11.27-6.5zM234.24 250.94l-11.27 6.5 11.27-6.5zM222.97 238.9h-.28l.28.16v-.16z"/><path fill="#ffd83e" d="M222.69 238.9h-11v12.03l11.28 6.51v-18.38l-.28-.16z"/></svg>